<mxfile host="app.diagrams.net" modified="2022-04-27T10:50:58.965Z" agent="5.0 (Windows NT 10.0; Win64; x64) AppleWebKit/537.36 (KHTML, like Gecko) Chrome/100.0.4896.127 Safari/537.36" etag="cIPmFMFK-GTf7UcruYP7" version="17.4.6" type="github">
  <diagram id="albgbqRPM90EEVLlygg2" name="Page-1">
    <mxGraphModel dx="1422" dy="705" grid="1" gridSize="10" guides="1" tooltips="1" connect="1" arrows="1" fold="1" page="1" pageScale="1" pageWidth="1100" pageHeight="850" math="0" shadow="0">
      <root>
        <mxCell id="0" />
        <mxCell id="1" parent="0" />
        <mxCell id="rUWxXdqovQCXtAZf_SL6-1" value="&lt;font color=&quot;#000000&quot;&gt;LOCALIDAD&lt;/font&gt;" style="rounded=0;whiteSpace=wrap;html=1;" vertex="1" parent="1">
          <mxGeometry x="390" y="130" width="120" height="60" as="geometry" />
        </mxCell>
        <mxCell id="rUWxXdqovQCXtAZf_SL6-2" value="&lt;font color=&quot;#000000&quot;&gt;PROVINCIA&lt;/font&gt;" style="rounded=0;whiteSpace=wrap;html=1;" vertex="1" parent="1">
          <mxGeometry x="230" y="390" width="120" height="60" as="geometry" />
        </mxCell>
        <mxCell id="rUWxXdqovQCXtAZf_SL6-3" value="&lt;font color=&quot;#000000&quot;&gt;COM. AUTONOMA&lt;/font&gt;" style="rounded=0;whiteSpace=wrap;html=1;" vertex="1" parent="1">
          <mxGeometry x="550" y="390" width="120" height="60" as="geometry" />
        </mxCell>
        <mxCell id="rUWxXdqovQCXtAZf_SL6-6" value="" style="endArrow=classic;html=1;rounded=0;fontColor=#000000;exitX=0.5;exitY=0;exitDx=0;exitDy=0;" edge="1" parent="1" source="rUWxXdqovQCXtAZf_SL6-2">
          <mxGeometry width="50" height="50" relative="1" as="geometry">
            <mxPoint x="400" y="320" as="sourcePoint" />
            <mxPoint x="290" y="320" as="targetPoint" />
          </mxGeometry>
        </mxCell>
        <mxCell id="rUWxXdqovQCXtAZf_SL6-7" value="" style="endArrow=classic;html=1;rounded=0;fontColor=#000000;exitX=0;exitY=0.5;exitDx=0;exitDy=0;entryX=1;entryY=0.5;entryDx=0;entryDy=0;" edge="1" parent="1" source="rUWxXdqovQCXtAZf_SL6-3" target="rUWxXdqovQCXtAZf_SL6-22">
          <mxGeometry width="50" height="50" relative="1" as="geometry">
            <mxPoint x="590" y="360" as="sourcePoint" />
            <mxPoint x="480" y="580" as="targetPoint" />
          </mxGeometry>
        </mxCell>
        <mxCell id="rUWxXdqovQCXtAZf_SL6-10" value="&lt;span style=&quot;background-color: rgb(255 , 255 , 255)&quot;&gt;es capital&lt;/span&gt;" style="rhombus;whiteSpace=wrap;html=1;labelBackgroundColor=#000000;fontColor=#000000;" vertex="1" parent="1">
          <mxGeometry x="250" y="240" width="80" height="80" as="geometry" />
        </mxCell>
        <mxCell id="rUWxXdqovQCXtAZf_SL6-12" value="" style="endArrow=classic;html=1;rounded=0;fontColor=#000000;exitX=0.5;exitY=0;exitDx=0;exitDy=0;entryX=0;entryY=0.5;entryDx=0;entryDy=0;" edge="1" parent="1" source="rUWxXdqovQCXtAZf_SL6-10" target="rUWxXdqovQCXtAZf_SL6-1">
          <mxGeometry width="50" height="50" relative="1" as="geometry">
            <mxPoint x="400" y="320" as="sourcePoint" />
            <mxPoint x="450" y="270" as="targetPoint" />
            <Array as="points">
              <mxPoint x="290" y="160" />
            </Array>
          </mxGeometry>
        </mxCell>
        <mxCell id="rUWxXdqovQCXtAZf_SL6-13" value="superficie" style="ellipse;whiteSpace=wrap;html=1;labelBackgroundColor=#FFFFFF;fontColor=#000000;" vertex="1" parent="1">
          <mxGeometry x="520" y="20" width="80" height="50" as="geometry" />
        </mxCell>
        <mxCell id="rUWxXdqovQCXtAZf_SL6-14" value="&lt;span style=&quot;background-color: rgb(53 , 57 , 59)&quot;&gt;poblacion&lt;/span&gt;" style="ellipse;whiteSpace=wrap;html=1;labelBackgroundColor=#FFFFFF;fontColor=#000000;" vertex="1" parent="1">
          <mxGeometry x="320" y="20" width="80" height="50" as="geometry" />
        </mxCell>
        <mxCell id="rUWxXdqovQCXtAZf_SL6-15" value="&lt;u&gt;nombre&lt;/u&gt;" style="ellipse;whiteSpace=wrap;html=1;labelBackgroundColor=#FFFFFF;fontColor=#000000;" vertex="1" parent="1">
          <mxGeometry x="420" y="20" width="80" height="50" as="geometry" />
        </mxCell>
        <mxCell id="rUWxXdqovQCXtAZf_SL6-16" value="" style="endArrow=classic;html=1;rounded=0;fontColor=#000000;entryX=0.5;entryY=1;entryDx=0;entryDy=0;exitX=0.5;exitY=0;exitDx=0;exitDy=0;" edge="1" parent="1" source="rUWxXdqovQCXtAZf_SL6-1" target="rUWxXdqovQCXtAZf_SL6-14">
          <mxGeometry width="50" height="50" relative="1" as="geometry">
            <mxPoint x="400" y="320" as="sourcePoint" />
            <mxPoint x="450" y="270" as="targetPoint" />
          </mxGeometry>
        </mxCell>
        <mxCell id="rUWxXdqovQCXtAZf_SL6-17" value="" style="endArrow=classic;html=1;rounded=0;fontColor=#000000;entryX=0.5;entryY=1;entryDx=0;entryDy=0;" edge="1" parent="1" target="rUWxXdqovQCXtAZf_SL6-15">
          <mxGeometry width="50" height="50" relative="1" as="geometry">
            <mxPoint x="450" y="130" as="sourcePoint" />
            <mxPoint x="450" y="270" as="targetPoint" />
          </mxGeometry>
        </mxCell>
        <mxCell id="rUWxXdqovQCXtAZf_SL6-18" value="" style="endArrow=classic;html=1;rounded=0;fontColor=#000000;entryX=0.5;entryY=1;entryDx=0;entryDy=0;exitX=0.5;exitY=0;exitDx=0;exitDy=0;" edge="1" parent="1" source="rUWxXdqovQCXtAZf_SL6-1" target="rUWxXdqovQCXtAZf_SL6-13">
          <mxGeometry width="50" height="50" relative="1" as="geometry">
            <mxPoint x="400" y="320" as="sourcePoint" />
            <mxPoint x="450" y="270" as="targetPoint" />
          </mxGeometry>
        </mxCell>
        <mxCell id="rUWxXdqovQCXtAZf_SL6-19" value="&lt;span style=&quot;background-color: rgb(53 , 56 , 59)&quot;&gt;&lt;u&gt;cod postal&lt;/u&gt;&lt;/span&gt;" style="ellipse;whiteSpace=wrap;html=1;labelBackgroundColor=#FFFFFF;fontColor=#000000;" vertex="1" parent="1">
          <mxGeometry x="150" y="500" width="80" height="50" as="geometry" />
        </mxCell>
        <mxCell id="rUWxXdqovQCXtAZf_SL6-20" value="&lt;span style=&quot;background-color: rgb(53 , 56 , 59)&quot;&gt;&lt;u&gt;nombre&lt;/u&gt;&lt;/span&gt;" style="ellipse;whiteSpace=wrap;html=1;labelBackgroundColor=#FFFFFF;fontColor=#000000;" vertex="1" parent="1">
          <mxGeometry x="680" y="490" width="80" height="50" as="geometry" />
        </mxCell>
        <mxCell id="rUWxXdqovQCXtAZf_SL6-22" value="&lt;span style=&quot;background-color: rgb(53 , 56 , 59)&quot;&gt;capital&lt;/span&gt;" style="rhombus;whiteSpace=wrap;html=1;labelBackgroundColor=#000000;fontColor=#000000;" vertex="1" parent="1">
          <mxGeometry x="430" y="380" width="80" height="80" as="geometry" />
        </mxCell>
        <mxCell id="rUWxXdqovQCXtAZf_SL6-23" value="" style="endArrow=classic;html=1;rounded=0;fontColor=#000000;entryX=0.167;entryY=1.067;entryDx=0;entryDy=0;exitX=0;exitY=0.5;exitDx=0;exitDy=0;entryPerimeter=0;" edge="1" parent="1" source="rUWxXdqovQCXtAZf_SL6-22" target="rUWxXdqovQCXtAZf_SL6-1">
          <mxGeometry width="50" height="50" relative="1" as="geometry">
            <mxPoint x="400" y="420" as="sourcePoint" />
            <mxPoint x="440" y="560" as="targetPoint" />
            <Array as="points">
              <mxPoint x="410" y="420" />
            </Array>
          </mxGeometry>
        </mxCell>
        <mxCell id="rUWxXdqovQCXtAZf_SL6-24" value="" style="endArrow=classic;html=1;rounded=0;fontColor=#000000;entryX=0;entryY=0;entryDx=0;entryDy=0;exitX=0.5;exitY=1;exitDx=0;exitDy=0;" edge="1" parent="1" source="rUWxXdqovQCXtAZf_SL6-3" target="rUWxXdqovQCXtAZf_SL6-20">
          <mxGeometry width="50" height="50" relative="1" as="geometry">
            <mxPoint x="410" y="510" as="sourcePoint" />
            <mxPoint x="460" y="460" as="targetPoint" />
          </mxGeometry>
        </mxCell>
        <mxCell id="rUWxXdqovQCXtAZf_SL6-25" value="" style="endArrow=classic;html=1;rounded=0;fontColor=#000000;exitX=0.5;exitY=1;exitDx=0;exitDy=0;entryX=0.5;entryY=0;entryDx=0;entryDy=0;" edge="1" parent="1" source="rUWxXdqovQCXtAZf_SL6-2" target="rUWxXdqovQCXtAZf_SL6-19">
          <mxGeometry width="50" height="50" relative="1" as="geometry">
            <mxPoint x="410" y="510" as="sourcePoint" />
            <mxPoint x="460" y="460" as="targetPoint" />
          </mxGeometry>
        </mxCell>
        <mxCell id="rUWxXdqovQCXtAZf_SL6-26" value="1,N" style="text;html=1;align=center;verticalAlign=middle;resizable=0;points=[];autosize=1;strokeColor=none;fillColor=none;fontColor=#000000;" vertex="1" parent="1">
          <mxGeometry x="250" y="160" width="30" height="20" as="geometry" />
        </mxCell>
        <mxCell id="rUWxXdqovQCXtAZf_SL6-27" value="1,1" style="text;html=1;align=center;verticalAlign=middle;resizable=0;points=[];autosize=1;strokeColor=none;fillColor=none;fontColor=#000000;" vertex="1" parent="1">
          <mxGeometry x="250" y="350" width="30" height="20" as="geometry" />
        </mxCell>
        <mxCell id="rUWxXdqovQCXtAZf_SL6-28" value="1,1" style="text;html=1;align=center;verticalAlign=middle;resizable=0;points=[];autosize=1;strokeColor=none;fillColor=none;fontColor=#000000;" vertex="1" parent="1">
          <mxGeometry x="220" y="280" width="30" height="20" as="geometry" />
        </mxCell>
        <mxCell id="rUWxXdqovQCXtAZf_SL6-29" value="1,1" style="text;html=1;align=center;verticalAlign=middle;resizable=0;points=[];autosize=1;strokeColor=none;fillColor=none;fontColor=#000000;" vertex="1" parent="1">
          <mxGeometry x="505" y="390" width="30" height="20" as="geometry" />
        </mxCell>
        <mxCell id="rUWxXdqovQCXtAZf_SL6-31" value="1,1" style="text;html=1;align=center;verticalAlign=middle;resizable=0;points=[];autosize=1;strokeColor=none;fillColor=none;fontColor=#000000;" vertex="1" parent="1">
          <mxGeometry x="435" y="360" width="30" height="20" as="geometry" />
        </mxCell>
        <mxCell id="rUWxXdqovQCXtAZf_SL6-32" value="nombre" style="ellipse;whiteSpace=wrap;html=1;labelBackgroundColor=#FFFFFF;fontColor=#000000;" vertex="1" parent="1">
          <mxGeometry x="250" y="500" width="80" height="50" as="geometry" />
        </mxCell>
        <mxCell id="rUWxXdqovQCXtAZf_SL6-33" value="&lt;span style=&quot;background-color: rgb(53 , 57 , 59)&quot;&gt;poblacion&lt;/span&gt;" style="ellipse;whiteSpace=wrap;html=1;labelBackgroundColor=#FFFFFF;fontColor=#000000;" vertex="1" parent="1">
          <mxGeometry x="90" y="395" width="80" height="50" as="geometry" />
        </mxCell>
        <mxCell id="rUWxXdqovQCXtAZf_SL6-34" value="superficie" style="ellipse;whiteSpace=wrap;html=1;labelBackgroundColor=#FFFFFF;fontColor=#000000;" vertex="1" parent="1">
          <mxGeometry x="355" y="500" width="80" height="50" as="geometry" />
        </mxCell>
        <mxCell id="rUWxXdqovQCXtAZf_SL6-36" value="" style="endArrow=classic;html=1;rounded=0;fontColor=#000000;exitX=0;exitY=0.5;exitDx=0;exitDy=0;entryX=1;entryY=0.5;entryDx=0;entryDy=0;" edge="1" parent="1" source="rUWxXdqovQCXtAZf_SL6-2" target="rUWxXdqovQCXtAZf_SL6-33">
          <mxGeometry width="50" height="50" relative="1" as="geometry">
            <mxPoint x="300" y="460" as="sourcePoint" />
            <mxPoint x="200" y="510" as="targetPoint" />
          </mxGeometry>
        </mxCell>
        <mxCell id="rUWxXdqovQCXtAZf_SL6-37" value="" style="endArrow=classic;html=1;rounded=0;fontColor=#000000;entryX=0.5;entryY=0;entryDx=0;entryDy=0;" edge="1" parent="1" target="rUWxXdqovQCXtAZf_SL6-32">
          <mxGeometry width="50" height="50" relative="1" as="geometry">
            <mxPoint x="290" y="450" as="sourcePoint" />
            <mxPoint x="210" y="520" as="targetPoint" />
          </mxGeometry>
        </mxCell>
        <mxCell id="rUWxXdqovQCXtAZf_SL6-38" value="" style="endArrow=classic;html=1;rounded=0;fontColor=#000000;entryX=0.5;entryY=0;entryDx=0;entryDy=0;" edge="1" parent="1" target="rUWxXdqovQCXtAZf_SL6-34">
          <mxGeometry width="50" height="50" relative="1" as="geometry">
            <mxPoint x="290" y="450" as="sourcePoint" />
            <mxPoint x="220" y="530" as="targetPoint" />
          </mxGeometry>
        </mxCell>
        <mxCell id="rUWxXdqovQCXtAZf_SL6-40" value="superficie" style="ellipse;whiteSpace=wrap;html=1;labelBackgroundColor=#FFFFFF;fontColor=#000000;" vertex="1" parent="1">
          <mxGeometry x="580" y="490" width="80" height="50" as="geometry" />
        </mxCell>
        <mxCell id="rUWxXdqovQCXtAZf_SL6-41" value="&lt;span style=&quot;background-color: rgb(53 , 57 , 59)&quot;&gt;poblacion&lt;/span&gt;" style="ellipse;whiteSpace=wrap;html=1;labelBackgroundColor=#FFFFFF;fontColor=#000000;" vertex="1" parent="1">
          <mxGeometry x="480" y="490" width="80" height="50" as="geometry" />
        </mxCell>
        <mxCell id="rUWxXdqovQCXtAZf_SL6-42" value="" style="endArrow=classic;html=1;rounded=0;fontColor=#000000;entryX=0.5;entryY=0;entryDx=0;entryDy=0;exitX=0.5;exitY=1;exitDx=0;exitDy=0;" edge="1" parent="1" source="rUWxXdqovQCXtAZf_SL6-3" target="rUWxXdqovQCXtAZf_SL6-40">
          <mxGeometry width="50" height="50" relative="1" as="geometry">
            <mxPoint x="540" y="470" as="sourcePoint" />
            <mxPoint x="621.7157287525383" y="517.3223304703365" as="targetPoint" />
          </mxGeometry>
        </mxCell>
        <mxCell id="rUWxXdqovQCXtAZf_SL6-43" value="" style="endArrow=classic;html=1;rounded=0;fontColor=#000000;entryX=0.5;entryY=0;entryDx=0;entryDy=0;exitX=0.5;exitY=1;exitDx=0;exitDy=0;" edge="1" parent="1" source="rUWxXdqovQCXtAZf_SL6-3" target="rUWxXdqovQCXtAZf_SL6-41">
          <mxGeometry width="50" height="50" relative="1" as="geometry">
            <mxPoint x="580" y="610" as="sourcePoint" />
            <mxPoint x="661.7157287525383" y="657.3223304703365" as="targetPoint" />
          </mxGeometry>
        </mxCell>
        <mxCell id="rUWxXdqovQCXtAZf_SL6-62" value="1,1" style="text;html=1;align=center;verticalAlign=middle;resizable=0;points=[];autosize=1;strokeColor=none;fillColor=none;fontColor=#000000;" vertex="1" parent="1">
          <mxGeometry x="375" y="380" width="30" height="20" as="geometry" />
        </mxCell>
      </root>
    </mxGraphModel>
  </diagram>
</mxfile>
